<svg xmlns="http://www.w3.org/2000/svg" viewBox="0 0 255.76 57.52"><defs><style>.cls-1{fill:#5b6770;}.cls-2{fill:#becbb2;}</style></defs><title>Asset 1</title><g id="Layer_2" data-name="Layer 2"><g id="Layer_1-2" data-name="Layer 1"><path class="cls-1" d="M64.73,21c-1.64,0-2.86.76-2.86,2.29,0,1.75,1.83,2.29,3.62,2.78,3,.84,6.26,1.79,6.26,5.95,0,4-3.28,6.11-7.36,6.11a18.38,18.38,0,0,1-7-1.18V31.63l3.43-.26V33.2a1.14,1.14,0,0,0,.88,1.29,7.33,7.33,0,0,0,2.52.39c1.9,0,3-.73,3-2.33,0-1.83-1.68-2.18-3.74-2.71-2.82-.73-5.91-1.68-5.91-5.92,0-4,3.35-6.06,7.36-6.06a14.71,14.71,0,0,1,6.33,1.52V24l-3.43.27v-1.6a1.15,1.15,0,0,0-.88-1.3A5.65,5.65,0,0,0,64.73,21Z"/><path class="cls-1" d="M83.24,17.86c2.82,0,8.51.88,8.51,9.65,0,7.33-4.09,10.69-9.12,10.69S74.16,34.91,74.16,28C74.16,20.07,79.31,17.86,83.24,17.86Zm3.85,10.26c0-4.27-1-6.9-4.08-6.9s-4.24,2.59-4.24,6.25.5,7.37,4.16,7.37C85.91,34.84,87.09,32.09,87.09,28.12Z"/><path class="cls-1" d="M114,37.62h-6.19V35.14a7.43,7.43,0,0,1-6.18,3c-3.81,0-5.91-2.1-5.91-6.6V22.7c0-.8-.31-1-1-1.06l-1.22-.08V18.43h6.72v12.1c0,2.32.38,4.08,2.82,4.08a3.76,3.76,0,0,0,4.09-3.78v-8c0-.84-.23-1.11-1-1.14L105,21.56V18.43h6.72v15c0,.84.22,1,1,1.1l1.34.12Z"/><path class="cls-1" d="M116.06,18.43h6.44v2.48a7.52,7.52,0,0,1,6.19-3.05c3.81,0,6.06,2.13,6.06,6.64v10l2.18.11v3h-9.08v-2.9l1.26-.11c.72-.08,1.1-.31,1.1-1.26V25.49c0-2.52-.53-4.12-3.13-4.12a3.76,3.76,0,0,0-3.93,3.85v9.24l2.18.11v3h-9.08v-2.9l1.26-.11c.72-.08,1.1-.31,1.1-1.26V22.78c0-.84-.26-1.14-1-1.18l-1.6-.12Z"/><path class="cls-1" d="M151.89,18.32V14.46c0-.65-.35-.88-1-.91l-1.64-.12v-3h7.1v23.2c0,.64.31.87,1,.87l1.33.08v3h-6.18V35.37l-.12,0a5.86,5.86,0,0,1-5.18,2.79c-6,0-7.71-4.58-7.71-9.35,0-6.52,3.36-10.91,9.31-10.91A10,10,0,0,1,151.89,18.32Zm0,3.47a7.24,7.24,0,0,0-2.9-.61c-3.63,0-4.85,3.43-4.85,7.17,0,3.47.84,6.41,4.12,6.41,2.14,0,3.63-1.41,3.63-3.09Z"/><path class="cls-1" d="M168.64,21c-1.64,0-2.86.76-2.86,2.29,0,1.75,1.83,2.29,3.62,2.78,3,.84,6.26,1.79,6.26,5.95,0,4-3.28,6.11-7.36,6.11a18.47,18.47,0,0,1-7-1.18V31.63l3.44-.26V33.2a1.14,1.14,0,0,0,.88,1.29,7.31,7.31,0,0,0,2.51.39c1.91,0,3-.73,3-2.33,0-1.83-1.68-2.18-3.74-2.71-2.82-.73-5.91-1.68-5.91-5.92,0-4,3.35-6.06,7.36-6.06a14.75,14.75,0,0,1,6.33,1.52V24l-3.43.27v-1.6a1.15,1.15,0,0,0-.88-1.3A5.65,5.65,0,0,0,168.64,21Z"/><path class="cls-1" d="M192.41,14.39v4h5.08l-.38,3.21h-4.7v10c0,2.33.92,3,2.48,3a5.13,5.13,0,0,0,2.6-.81l1.14,2.94a9,9,0,0,1-4.84,1.34c-6,0-5.92-3.67-5.92-6.34V21.64h-2.71l.38-2.79c2.68-.23,3.59-2.29,4.39-4.46Z"/><path class="cls-1" d="M202.45,22.78c0-.84-.23-1.11-.95-1.14l-1.61-.12V18.43h6.45v2.86a6,6,0,0,1,5.42-3.43,8,8,0,0,1,3.66.84v5.68l-3.55.27V22.89c0-.45-.07-.8-.38-.95a2.28,2.28,0,0,0-1-.19A3.54,3.54,0,0,0,207,25.6v8.86l3.32.15v3H200.08v-2.9l1.26-.11c.73-.08,1.11-.31,1.11-1.26Z"/><path class="cls-1" d="M237.56,37.62h-6.19V35.14a7.43,7.43,0,0,1-6.18,3c-3.81,0-5.91-2.1-5.91-6.6V22.7c0-.8-.31-1-1-1.06l-1.22-.08V18.43h6.72v12.1c0,2.32.38,4.08,2.82,4.08a3.75,3.75,0,0,0,4.08-3.78v-8c0-.84-.22-1.11-.95-1.14l-1.22-.08V18.43h6.72v15c0,.84.22,1,.95,1.1l1.34.12Z"/><path class="cls-1" d="M255.68,23.16c0,5.88-6.37,6.87-10.87,6.91.15,2.48,1.45,4.5,4.69,4.5a8.24,8.24,0,0,0,4.81-1.68L255.76,36A11.05,11.05,0,0,1,249,38.12c-6.48,0-9-4-9-9.65s3.16-10.61,9.42-10.61C253.2,17.86,255.68,19.77,255.68,23.16Zm-6.49-2.06c-3.05,0-4.42,2.94-4.54,5.76,2.83,0,6.83-.68,6.83-3.62A2,2,0,0,0,249.19,21.1Z"/><path class="cls-2" d="M33.26,28.4c2.34-1.32,4.89-2.26,7.33-3.4,4.32-2,8.11-4.69,10.21-9.13A23.77,23.77,0,0,0,52,11.55c-3.11,2.22-5.91,4.58-9,6.38-5.75,3.28-11.25,6.74-14.88,12.58a4.58,4.58,0,0,1,.51-1.88,22,22,0,0,1,9.68-9.41c4.64-2.45,9.16-5.11,11.85-9.95C52.2,5.49,52.51,2.68,51.28,0c-2.44,3.32-4.77,7.14-7.75,10.38-3.41,3.73-7.45,6.86-11.11,10.37A23.4,23.4,0,0,0,26,30.9a23.4,23.4,0,0,0-6.42-10.15c-3.66-3.51-7.7-6.64-11.11-10.37C5.5,7.14,3.16,3.32.72,0-.51,2.68-.2,5.49,1.9,9.27c2.69,4.84,7.21,7.5,11.85,10a22.09,22.09,0,0,1,9.69,9.41,4.74,4.74,0,0,1,.5,1.88c-3.62-5.84-9.13-9.3-14.87-12.58-3.13-1.8-5.93-4.16-9-6.38a23,23,0,0,0,1.18,4.32C3.31,20.31,7.09,23,11.41,25c2.45,1.14,5,2.08,7.34,3.4,4.71,2.67,6,7.19,5.93,12.32a10,10,0,0,1-.56-1.62c-.9-5-3.92-8.31-8.46-10.36a88.82,88.82,0,0,1-8.91-4.09c-2.18-1.28-4-3.24-5.82-4.82-1,2.89.45,6.93,3.86,9.1,2.4,1.53,5.09,2.59,7.58,4A47.77,47.77,0,0,1,20,37.66a8.47,8.47,0,0,1,1.91,9.87c-.13-.89-.22-1.47-.3-2.06a10,10,0,0,0-5.13-7.9l-7.3-4.14c-.83,2.81.12,5.41,3,7.66,1.34,1.07,2.84,1.95,4.1,3.1,5.92,5.44,0,12.34-.93,13.33,2.62-2.83,5.49-5.53,7.6-8.71A24.21,24.21,0,0,0,26,42.29a24.25,24.25,0,0,0,3.07,6.52c2.11,3.18,5,5.88,7.59,8.71-.91-1-6.84-7.89-.92-13.33,1.25-1.15,2.76-2,4.1-3.1,2.84-2.25,3.78-4.85,2.95-7.66l-7.3,4.14a10,10,0,0,0-5.13,7.9c-.07.59-.17,1.17-.29,2.06A8.46,8.46,0,0,1,32,37.66a47.77,47.77,0,0,1,7.66-4.73c2.48-1.41,5.17-2.47,7.57-4,3.41-2.17,4.88-6.21,3.87-9.1-1.87,1.58-3.65,3.54-5.83,4.82a89.68,89.68,0,0,1-8.9,4.09c-4.55,2.05-7.57,5.32-8.46,10.36a11.1,11.1,0,0,1-.56,1.62C27.25,35.59,28.54,31.07,33.26,28.4Z"/><path class="cls-1" d="M61.64,46.69h0l-1.13,4.77H59l-1.6-7.33H58.7l1.12,5.47h0L61,44.72h1.36l1.13,4.89h0l1-5.48h1.31l-1.57,7.33H62.81Z"/><path class="cls-1" d="M70.66,51.46l2.51-7.33h1.49l2.57,7.33H75.8l-.65-1.94H72.59L72,51.46Zm2.19-3h2l-1-3.14h0Z"/><path class="cls-1" d="M86.2,47.12l2.26,4.34H87L85.3,48.2l-1,1.42v1.84H82.93V44.13h1.32v3.68l2.61-3.68h1.42Z"/><path class="cls-1" d="M94.1,51.46V44.13h1.34v7.33Z"/><path class="cls-1" d="M107.55,44.13v7.33h-1.28l-3.14-5.17h0v5.17H101.8V44.13h1.34l3.06,5.1h0v-5.1Z"/><path class="cls-1" d="M119.38,50.89a4.63,4.63,0,0,1-2.55.71c-2,0-3.22-1.23-3.22-3.79,0-2.85,1.7-3.81,3.21-3.81a3,3,0,0,1,2.58,1.32l-1,.73a2,2,0,0,0-1.62-.92c-1.14,0-1.83.95-1.83,2.6s.57,2.77,1.9,2.77a2.58,2.58,0,0,0,1.16-.26v-1.6h-1v-1h2.37Z"/><path class="cls-1" d="M134,44.13v4.94c0,1.08.6,1.4,1.43,1.4a1.23,1.23,0,0,0,1.36-1.34v-5h1.34v5.18c0,1.45-1.12,2.29-2.75,2.29-1.79,0-2.71-.73-2.71-2.46v-5Z"/><path class="cls-1" d="M145.7,51.46h-1.34V44.13h2.51c1.6,0,2.59.77,2.59,2.25,0,1.68-1.18,2.51-2.83,2.51h-.93Zm.78-3.63c1,0,1.6-.34,1.6-1.32s-.65-1.31-1.72-1.31h-.66v2.63Z"/><path class="cls-1" d="M167.42,44.13V45.3H165.3v6.16H164V45.3h-2.06V44.13Z"/><path class="cls-1" d="M179,44.13v7.33H177.6V48.3h-3.09v3.16h-1.33V44.13h1.33v3h3.09v-3Z"/><path class="cls-1" d="M185.29,44.13h4.38V45.3h-3v1.84h2.61v1.17h-2.61v2h3.13v1.16h-4.46Z"/><path class="cls-1" d="M206.46,46.69h0l-1.13,4.77h-1.52l-1.59-7.33h1.33l1.13,5.47h0l1.11-4.88h1.36l1.14,4.89h0l1.05-5.48h1.31l-1.56,7.33h-1.49Z"/><path class="cls-1" d="M219.16,51.6c-1.94,0-3.1-1.27-3.1-3.79,0-2.82,1.69-3.81,3.22-3.81s3,1,3,3.81C222.32,50.34,221.08,51.6,219.16,51.6Zm.08-1.12c1.32,0,1.73-1.31,1.73-2.63,0-1.13-.35-2.72-1.75-2.72s-1.8,1.32-1.8,2.63S217.74,50.48,219.24,50.48Z"/><path class="cls-1" d="M229.72,51.46h-1.33V44.13h2.44c1.6,0,2.62.53,2.62,2a2,2,0,0,1-1.26,1.94,1,1,0,0,1,.6.67L234,51.46h-1.43l-1-2.31c-.15-.34-.33-.57-.72-.57h-1.08Zm1.09-3.93a1.16,1.16,0,0,0,1.28-1.27c0-.94-.57-1.06-1.6-1.06h-.77v2.33Z"/><path class="cls-1" d="M239.71,44.13h1.34V50.3h3.08v1.16h-4.42Z"/><path class="cls-1" d="M250,44.13h2.37a3.08,3.08,0,0,1,3.41,3.41c0,2.89-1.6,3.92-3.36,3.92H250Zm1.33,6.28h1.11c1.23,0,2-.91,2-2.67,0-2-.95-2.54-2.13-2.54h-1Z"/></g></g></svg>